<?xml version="1.0" standalone="no"?>
<!DOCTYPE svg PUBLIC "-//W3C//DTD SVG 20010904//EN"
 "http://www.w3.org/TR/2001/REC-SVG-20010904/DTD/svg10.dtd">
<svg version="1.0" xmlns="http://www.w3.org/2000/svg"
 width="200.000000pt" height="30.000000pt" viewBox="0 0 200.000000 30.000000"
 preserveAspectRatio="xMidYMid meet" >

<g transform="translate(0.000000,30.000000) scale(0.100000,-0.100000)"
fill="#000000" stroke="none">
<path d="M94 237 c-3 -8 -3 -56 -2 -108 3 -86 5 -94 23 -94 17 0 20 8 23 58 3
53 13 70 27 47 3 -5 15 -15 25 -20 16 -8 23 -6 37 10 10 11 21 20 25 20 4 0 8
-26 10 -57 3 -50 6 -58 23 -58 19 0 20 8 23 103 3 123 -7 136 -67 78 l-37 -36
-34 35 c-35 36 -67 45 -76 22z" fill="currentColor" />
<path d="M381 224 c-89 -75 -12 -219 99 -185 50 15 71 42 77 95 5 42 3 48 -30
81 -45 45 -99 49 -146 9z m109 -44 c27 -27 25 -55 -6 -79 -34 -27 -40 -26 -69
4 -30 29 -31 35 -4 69 24 31 52 33 79 6z" fill="currentColor" />
<path d="M595 238 c-3 -8 -4 -57 -3 -109 l3 -94 55 -3 c116 -7 168 34 157 126
-8 69 -31 86 -127 90 -62 3 -81 1 -85 -10z m153 -70 c19 -40 1 -75 -42 -84
-57 -10 -66 -2 -66 61 l0 56 47 -3 c40 -3 50 -7 61 -30z" fill="currentColor"/>
<path d="M883 156 c-27 -55 -44 -100 -40 -110 9 -23 202 -24 211 -1 9 24 -85
205 -106 205 -13 0 -32 -28 -65 -94z m82 -26 c22 -42 19 -50 -20 -50 -19 0
-35 2 -35 5 0 7 33 75 37 75 1 0 9 -13 18 -30z" fill="currentColor"/>
<path d="M1092 143 c3 -100 4 -108 23 -108 19 0 20 7 20 105 0 102 -1 105 -23
108 -23 3 -23 3 -20 -105z" fill="currentColor"/>
<path d="M1196 206 c-20 -24 -36 -54 -36 -65 0 -25 76 -111 97 -111 28 0 25
31 -6 70 -17 21 -31 42 -31 46 0 5 14 23 31 40 20 20 29 39 26 48 -11 28 -44
17 -81 -28z" fill="currentColor"/>
<path d="M1314 237 c-3 -8 -3 -56 -2 -108 l3 -94 67 -3 c61 -3 71 0 92 21 20
20 24 34 24 88 -1 91 -19 109 -110 109 -48 0 -70 -4 -74 -13z m129 -52 c-1 -5
-12 -12 -25 -15 -14 -4 -24 -15 -26 -28 -3 -18 1 -22 23 -22 20 0 26 -4 23
-17 -2 -13 -14 -19 -41 -21 l-37 -3 0 61 0 61 43 -3 c23 -2 41 -7 40 -13z" fill="currentColor"/>
<path d="M1537 244 c-4 -4 -7 -40 -7 -80 0 -63 3 -77 24 -101 20 -23 32 -28
70 -28 72 0 90 25 95 130 l3 85 -26 0 c-25 0 -26 -2 -26 -65 0 -52 -4 -69 -20
-85 -16 -16 -25 -18 -40 -10 -22 12 -29 33 -32 105 -2 36 -7 51 -18 53 -9 1
-19 0 -23 -4z" fill="currentColor"/>
<path d="M1755 237 c-3 -7 -4 -56 -3 -108 l3 -94 90 0 c83 0 90 1 90 20 0 18
-8 20 -67 23 l-67 3 -3 82 c-3 69 -6 82 -21 85 -9 2 -19 -3 -22 -11z" fill="currentColor"/>
</g>
</svg>
